<!-- Generated by IcoMoon.io -->
<svg version="1.1" xmlns="http://www.w3.org/2000/svg" width="512" height="512" viewBox="0 0 512 512">
<title></title>
<g id="icomoon-ignore">
</g>
<path d="M0 152.494c3.387 10.974 11.652 18.019 19.103 25.742 71.161 73.838 142.358 147.811 213.655 221.615 2.236 2.303 4.572 4.606 7.079 6.639 10.059 8.129 22.761 7.993 32.685-0.271 1.965-1.591 3.793-3.387 5.521-5.25 74.582-77.529 149.132-154.991 223.714-232.351 8.4-8.671 12.43-18.731 9.043-30.889-2.879-10.838-25.505-34.040-35.97-37.020-2.336-0.766-5.025-1.209-7.817-1.209-6.369 0-12.202 2.302-16.709 6.117l0.038-0.031c-2.099 1.626-4.065 3.692-5.894 5.588-61.339 63.507-122.848 127.048-184.086 190.725-3.793 3.962-5.487 3.522-9.010-0.102-61.508-63.947-123.119-127.624-184.763-191.435-11.38-11.821-26.419-14.666-37.258-5.148-11.685 10.161-24.387 19.916-29.196 36.038-0.136 3.624-0.136 7.452-0.136 11.244z"></path>
</svg>
