<!-- Generated by IcoMoon.io -->
<svg version="1.1" xmlns="http://www.w3.org/2000/svg" width="512" height="512" viewBox="0 0 512 512">
<title></title>
<g id="icomoon-ignore">
</g>
<path d="M152.494 512c10.974-3.387 18.019-11.651 25.742-19.103 73.838-71.161 147.811-142.358 221.615-213.655 2.303-2.236 4.606-4.572 6.639-7.079 8.129-10.060 7.993-22.761-0.271-32.685-1.591-1.965-3.387-3.793-5.25-5.521-77.529-74.583-154.991-149.132-232.351-223.714-8.671-8.4-18.731-12.43-30.889-9.043-10.838 2.879-34.040 25.505-37.020 35.97-0.766 2.336-1.209 5.025-1.209 7.816 0 6.369 2.302 12.201 6.117 16.709l-0.031-0.038c1.626 2.099 3.692 4.064 5.588 5.894 63.507 61.339 127.048 122.848 190.725 184.086 3.962 3.793 3.522 5.486-0.102 9.010-63.947 61.508-127.624 123.119-191.435 184.763-11.821 11.38-14.666 26.419-5.148 37.257 10.161 11.685 19.916 24.387 36.038 29.196 3.624 0.135 7.452 0.135 11.244 0.135z"></path>
</svg>
