<!-- Generated by IcoMoon.io -->
<svg version="1.1" xmlns="http://www.w3.org/2000/svg" width="512" height="512" viewBox="0 0 512 512">
<title></title>
<g id="icomoon-ignore">
</g>
<path fill="#000" d="M255.279 482.075c-63.201 0-126.4 0.166-189.601 0-33.364 0-59.029-22.002-64.805-55.507-0.642-3.668-0.802-7.501-0.802-11.168 0-79.677-0.161-159.187 0-238.863 0.161-33.839 21.655-60.008 53.416-66.009 7.058-1.334 14.436-0.834 21.495-0.834 20.532-0.166 34.166-10.001 40.422-30.337 8.181-26.337 24.702-43.005 51.17-48.506 4.491-1 9.143-1 13.795-1 50.367 0 100.734 0 151.262 0 31.601 0 53.897 16.669 64.163 47.839 7.539 23.003 19.73 32.337 43.471 31.837 17.645-0.334 34.328 2.501 48.442 14.335 14.918 12.668 23.74 28.837 23.901 48.839 0.482 45.673 0.32 91.511 0.32 137.184 0 34.671 0.161 69.341 0 104.18-0.16 34.337-21.174 60.841-53.255 66.841-4.812 1-9.945 1-14.918 1-62.88 0.166-125.599 0.166-188.477 0.166zM255.92 402.231c63.681 0 115.172-53.507 115.172-119.682 0-66.008-51.812-119.849-115.172-119.849-63.521 0-115.172 53.84-115.172 119.849 0 66.174 51.491 119.682 115.172 119.682zM421.941 202.54c2.567 0 5.134 0.167 7.86 0 9.464-0.5 17.164-7.834 18.127-17.502 0.962-10.001-4.973-19.169-14.437-21.502-7.219-1.667-14.757-1.667-21.976 0-9.142 2-15.559 11.501-14.757 20.669 0.962 10.168 8.341 17.668 18.127 18.335 2.245 0.167 4.651 0 7.058 0z"></path>
</svg>
