<!-- Generated by IcoMoon.io -->
<svg version="1.1" xmlns="http://www.w3.org/2000/svg" width="512" height="512" viewBox="0 0 512 512">
<title></title>
<g id="icomoon-ignore">
</g>
<path d="M511.784 144.413c0.8 4.384-1.6 6.912-4.16 9.6-31.712 32.96-99.298 104.353-130.85 137.346-3.471 3.298-55.591 57.647-107.671 112.034l-52.108 54.784c-7.712 8.096-12.864 7.424-19.969 0-56.961-59.585-133.858-139.522-190.979-198.947-8.064-8.416-8.064-12.288 0-20.544 25.921-27.105 51.969-53.857 77.537-81.153 7.744-8.224 13.856-6.72 20.129 0 26.24 27.297 72.257 75.073 98.465 102.37 0.8 0.832 1.6 1.664 2.24 2.688 1.472 2.688 2.912 2.176 4.544 0.16 0.8-0.992 1.76-1.856 2.72-2.88 53.921-56.193 143.682-150.626 197.443-207.043 6.432-6.72 14.496-6.208 20.449 0.192 25.728 27.584 52.129 54.721 78.209 81.953 2.56 2.368 4.96 5.056 4 9.44z"></path>
</svg>
