<!-- Generated by IcoMoon.io -->
<svg version="1.1" xmlns="http://www.w3.org/2000/svg" width="512" height="512" viewBox="0 0 512 512">
<title></title>
<g id="icomoon-ignore">
</g>
<path fill="#000" d="M442.003 0.001c5.668 0 11.33 0 16.998 0 0.144 0.815 0.742 0.894 1.435 1.002 28.19 4.139 50.387 28.769 51.462 57.184 0.721 19.069-6.252 34.935-19.717 48.349-48.743 48.572-97.327 97.311-146.101 145.862-3.029 3.014-2.769 4.378 0.101 7.226 34.515 34.293 68.893 68.724 103.286 103.139 15.548 15.557 31.458 30.774 46.48 46.827 26.142 27.925 19.406 73.491-13.306 93.316-25.010 15.152-55.147 11.157-76.732-10.392-48.823-48.739-97.596-97.52-146.274-146.404-2.899-2.913-4.262-3.029-7.233-0.043-33.577 33.817-67.314 67.474-101.021 101.161-16.269 16.248-32.165 32.901-48.953 48.595-31.803 29.727-83.864 16.601-98.763-24.363-1.269-3.49-1.053-7.507-3.663-10.514 0-6.664 0-13.335 0-19.999 0.317-0.325 0.866-0.606 0.93-0.973 2.639-14.663 10.428-26.216 20.856-36.587 48.066-47.786 95.886-95.818 143.923-143.626 3.101-3.087 3.094-4.507 0-7.587-48.629-48.399-97.091-96.958-145.639-145.429-6.181-6.174-11.582-12.874-14.893-21.008-1.962-4.817-3.462-9.823-5.163-14.742 0-6.664 0-13.335 0-19.999 1.81-0.908 1.435-2.834 1.832-4.291 6.087-22.523 20.438-37.063 42.455-44.31 2.257-0.743 4.94-0.303 6.714-2.387 6 0 12.001 0 18 0 0.165 0.26 0.31 0.736 0.504 0.757 15.275 1.724 27.34 9.325 37.983 20.006 48.196 48.349 96.549 96.54 144.709 144.924 3.087 3.101 4.507 3.094 7.587-0.007 48.397-48.616 96.968-97.066 145.423-145.617 8.019-8.034 17.091-14.157 28.010-17.518 2.913-0.909 6.151-0.678 8.769-2.553z"></path>
</svg>
