<!-- Generated by IcoMoon.io -->
<svg version="1.1" xmlns="http://www.w3.org/2000/svg" width="512" height="512" viewBox="0 0 512 512">
<title></title>
<g id="icomoon-ignore">
</g>
<path d="M164.913 473.584c27.869-27.885 56.577-56.603 84.865-85.117 1.677-1.678 3.772-3.354 6.286-3.354s4.61 1.677 6.286 3.354c22.212 22.432 44.634 44.861 67.055 67.086 16.135 16.144 32.27 32.284 48.405 48.428 7.334 7.337 14.25 9.433 22.42 7.128 3.143-1.048 6.289-2.938 9.642-6.289l23.678-23.69c23.26-23.272 47.356-47.38 71.034-71.070 10.059-10.063 9.85-21.384-0.418-31.656-34.993-35.010-75.646-75.89-115.879-115.932-1.885-1.887-3.563-3.774-3.563-6.289s1.676-4.612 3.353-6.29c23.468-23.27 47.358-47.169 70.406-70.231 15.088-15.094 30.176-30.189 45.264-45.283 7.334-7.338 9.428-14.255 7.125-22.431-1.048-3.355-2.934-6.499-6.498-10.063l-22.839-22.852c-23.678-23.689-47.356-47.379-71.038-71.278-3.769-3.773-7.959-5.87-12.363-7.547h-8.8c-6.286 2.725-11.106 7.757-16.344 12.998-0.838 0.838-1.885 1.887-2.724 2.726l-18.021 18.030c-29.546 29.56-60.139 60.167-90.314 90.356-1.466 1.677-3.563 3.145-6.077 3.145s-4.4-1.677-5.868-3.145c-21.163-21.174-42.328-42.558-63.492-63.731-16.135-16.142-32.27-32.285-48.196-48.428-5.448-5.45-10.268-9.853-16.344-12.159h-8.172c-6.496 2.096-11.316 6.708-16.135 11.53-28.289 28.511-56.577 56.813-83.189 83.228l-1.258 1.257c-5.239 5.242-10.268 10.273-12.992 16.772v9.853c2.724 6.289 7.753 11.111 12.783 16.352 0.838 0.839 1.886 1.887 2.724 2.726l18.021 18.029c29.546 29.56 60.14 60.167 90.314 90.147 1.466 1.468 3.144 3.564 3.144 5.87 0 2.515-1.677 4.402-3.144 5.87-30.174 29.979-60.768 60.587-90.314 90.147l-18.021 18.029c-0.838 0.839-1.886 1.887-2.724 2.726-5.239 5.031-10.058 9.853-12.992 16.352v9.855c2.724 6.498 7.753 11.528 12.992 16.77l1.258 1.257c33.108 33.127 60.769 60.589 86.962 87.005 7.124 7.125 14.249 9.224 22.421 6.916 4.191-1.257 7.543-4.19 10.686-7.337l30.594-29.767z"></path>
</svg>
