<!-- Generated by IcoMoon.io -->
<svg version="1.1" xmlns="http://www.w3.org/2000/svg" width="512" height="512" viewBox="0 0 512 512">
<title></title>
<g id="icomoon-ignore">
</g>
<path d="M228.932 286.666c0.527-0.11 0-0.308-3.163-0.308l3.163 0.308z"></path>
<path d="M511.435 128.609c2.526-12.126-3.493-26.251-16.563-29.217-11.928-2.724-26.471 3.603-29.217 16.564-2.197 10.544-4.942 20.869-8.545 30.997-0.834 2.328-1.582 4.548-2.526 6.744-0.725 1.911-4.525 8.655-0.834 2.328-2.636 4.525-4.327 9.71-6.744 14.345-6.295 12.128-12.74 22.443-19.895 32.204l0.476-0.68c-0.725 1.054-1.472 1.999-2.197 3.076-11.13 13.881-23.27 26.126-36.577 36.997l-0.438 0.347c-0.637 0.483-1.384 1.011-2.109 1.648-11.442 8.718-24.374 16.692-38.067 23.346l-1.365 0.599c-2.109 1.055-4.327 1.999-6.546 3.053l-2.197 0.945-0.55 0.22c-0.202 0.085-0.375 0.188-0.533 0.312l0.005-0.003c0.11-0.11 0.22-0.11 0.329-0.22-3.575 1.543-8.543 3.372-13.601 4.998l-1.382 0.384c-10.413 3.545-22.861 6.563-35.664 8.501l-1.241 0.154h-0.22c-0.308 0-0.615 0.11-0.945 0.11-5.122 0.68-11.392 1.207-17.733 1.459l-0.413 0.013c-11.16 0.527-22.341 0.22-33.391-0.834-1.296-0.11-2.636-0.439-4.020-0.527-0.238 0.051-0.511 0.081-0.791 0.081s-0.553-0.029-0.816-0.086l0.025 0.005c-0.527-0.11-1.054-0.22-1.582-0.22-0.945-0.11-1.911-0.308-2.856-0.439-17.156-2.887-32.368-7.101-46.901-12.683l1.648 0.557c-1.56-0.615-3.031-1.362-4.613-1.977-0.641-0.125-1.207-0.308-1.742-0.548l0.050 0.020c-0.109 0-0.22-0.11-0.329-0.11 0.109 0 0.22 0 0.22 0.11-1.054-0.439-2.109-0.966-3.163-1.493-4.745-2.197-9.49-4.525-14.125-7.051-10.046-5.555-18.516-11.001-26.608-16.934l0.686 0.48-2.24-1.582c0.109 0.109 0.109 0.109 0.109 0.22-0.109-0.109-0.22-0.109-0.22-0.22-0.474-0.341-0.885-0.725-1.243-1.154l-0.009-0.011c-1.275-1.054-2.746-1.999-4.020-3.054-4.3-3.634-8.106-7.043-11.814-10.553l0.126 0.119c-8.128-7.689-15.597-16.036-22.671-24.78l-2.636-3.581c-4.409-6.054-9.011-13.111-13.267-20.394l-0.659-1.222c-3.299-5.654-6.968-12.791-10.312-20.106l-0.672-1.642v0.22c0-0.088 0-0.088-0.088-0.22-0.22-0.505-0.439-0.923-0.637-1.45-0.22-0.527-0.307-1.054-0.417-1.384-0.307-0.834-0.747-1.582-1.054-2.417-4.218-10.983-7.469-22.143-10.017-33.544-2.746-12.126-17.398-20.342-29.217-16.541-12.324 4.218-19.068 16.234-16.234 29.305 12.653 56.523 44.507 106.719 88.155 143.097l-6.963 9.798c-7.909 11.182-15.817 22.473-23.725 33.632-1.779 2.636-3.691 5.184-5.492 7.82-1.59 2.524-2.617 5.548-2.831 8.796l-0.003 0.057c-0.274 1.182-0.431 2.54-0.431 3.934 0 1.986 0.318 3.896 0.907 5.684l-0.036-0.128c0.731 3.159 2.197 5.902 4.211 8.145l-0.015-0.017c1.697 2.553 3.934 4.615 6.56 6.058l0.096 0.048c5.492 2.943 12.126 4.327 18.233 2.416 1.889-0.834 3.8-1.582 5.712-2.416 3.558-2.109 6.415-4.965 8.523-8.545l14.872-21.089c6.326-9.072 12.742-18.146 19.090-27.108 16.541 9.402 34.050 16.981 52.502 22.582 17.091 5.163 34.577 8.524 52.085 10.017v54.502c-0.012 0.249-0.019 0.541-0.019 0.834 0 3.048 0.746 5.923 2.066 8.45l-0.048-0.101c0.966 2.943 2.636 5.492 4.965 7.579 2.050 2.193 4.6 3.893 7.468 4.923l0.132 0.041c2.856 1.472 5.909 2.197 9.161 1.999 6.129-0.308 12.565-2.307 16.783-6.964 4.194-4.349 6.817-10.237 6.942-16.737l0-0.024v-54.721c37.537-3.711 71.805-14.68 102.409-31.493l-1.38 0.695 3.779 5.382c7.909 11.181 15.817 22.473 23.725 33.632 1.801 2.636 3.712 5.184 5.492 7.82 1.469 2.736 3.545 4.975 6.059 6.592l0.070 0.042c2.212 2.027 4.962 3.505 8.010 4.195l0.118 0.022c1.658 0.55 3.565 0.868 5.547 0.868 1.389 0 2.743-0.156 4.043-0.452l-0.122 0.023c3.314-0.117 6.361-1.167 8.913-2.894l-0.060 0.038c5.053-3.295 9.49-8.128 10.874-14.147 0.308-2.109 0.527-4.218 0.834-6.327 0-4.306-1.055-8.216-3.273-12.017-4.942-7.051-9.885-14.015-14.872-21.089l-19.705-27.942c6.437-5.272 12.741-10.764 18.76-16.651 36.488-35.96 62.322-82.576 72.668-132.442z"></path>
<path d="M173.047 271.794c1.472 0.439 2.328 0.439-1.78-0.615l1.78 0.615zM337.76 272.233c0.088-0.11 0.308-0.11 0.527-0.22 1.67-0.834 3.889-2.197-0.747 0.308 0 0 0.11-0.088 0.22-0.088zM58.552 158.222c-0.659-3.031-1.077-3.47-1.077-2.834 0.439 0.945 0.856 1.911 1.077 2.856zM285.565 286.469c-5.184-0.22-3.163 0.22-1.164 0.088 0.308-0.088 0.725-0.088 1.055-0.088h0.11zM125.817 244.599c-2.966-3.076-2.548-2.328-1.384-1.274 0.439 0.439 0.856 0.857 1.384 1.274-0.109 0-0.109 0 0 0z"></path>
</svg>
