<!-- Generated by IcoMoon.io -->
<svg version="1.1" xmlns="http://www.w3.org/2000/svg" width="512" height="512" viewBox="0 0 512 512">
<title></title>
<g id="icomoon-ignore">
</g>
<path fill="#000" d="M449.911 62.194c-21.99-4.184-44.409-6.436-66.613-9.547-32.502-4.612-65.004-9.225-97.506-13.73-32.716-4.612-65.541-8.581-98.042-13.837-41.298-6.758-76.267 14.91-86.886 55.35-3.004 11.371-3.54 23.063-5.256 34.647-0.429 3.218-1.394 4.505-4.827 4.29-5.9-0.322-11.907-0.322-17.806-0.322-34.433 0-63.717 23.814-71.332 57.388-0.643 2.897-0.966 5.685-1.18 8.582v0 0c-0.429 5.899-0.107 11.692 0 17.591l-0.429 210.351c-0.966 32.932 19.952 62.536 51.81 72.406 10.727 3.325 21.561 2.789 32.502 2.682 39.904-0.214 79.914-0.108 119.817-0.108 42.37 0 84.741 0 127.111 0 6.865 0 13.73-0.322 20.596-1.072 32.716-3.647 55.457-23.921 62.215-56.101 0.751-3.755 2.36-4.719 5.685-5.149 25.208-3.647 43.228-17.055 54.921-39.582 5.899-11.37 6.543-23.813 8.152-36.149 4.935-35.827 9.976-71.654 15.017-107.482 4.291-30.893 8.582-61.786 13.087-92.571 6.221-42.37-15.232-78.949-61.035-87.638zM379.758 421.11c-2.682 17.27-12.979 27.568-30.142 30.25-5.685 0.858-11.478 1.18-17.163 1.18-41.406 0-82.81 0-124.322 0-41.406 0-82.811 0-124.323 0-4.827 0-9.654-0.108-14.481-0.858-20.917-3.111-31.537-14.267-33.038-35.398-0.322-4.076-0.322-8.152-0.322-12.228 0-66.827 0-133.762 0-200.59 0-5.899 0.108-11.799 1.18-17.699 3.325-17.699 13.837-27.674 31.858-29.606 5.364-0.536 10.727-0.965 16.090-0.965 82.059-0.107 164.226-0.107 246.286 0 5.899 0 11.907 0.214 17.806 1.18 19.844 3.111 29.713 14.91 31.322 37.114 0.214 3.326 0.214 6.651 0.214 9.976 0 67.042 0 134.084 0 201.126 0.108 5.363-0.108 10.942-0.966 16.519zM475.44 146.077c-5.256 36.363-10.298 72.727-15.447 109.091-4.827 33.789-9.546 67.579-14.481 101.368-1.394 9.225-4.398 18.021-11.156 24.993-1.288 1.288-2.682 2.575-4.183 3.647-3.861 2.575-8.582 6.007-12.658 4.291-0.429-0.214-0.751-0.536-0.966-0.858v-9.762c0 0 0-0.108 0-0.108-0.108-57.925-0.108-115.956 0-173.881 0-11.478 0.751-22.955-2.789-34.218-9.762-31.108-38.080-51.917-70.796-51.703-16.948 0.108-33.789 0.215-50.737 0.322-16.734 0-33.467 0-50.201 0-35.291 0-70.582-0.108-105.873 0.108-4.506 0-5.685-1.073-4.827-5.471 1.287-6.543 1.609-13.301 2.897-19.844 5.256-26.924 21.453-37.007 47.197-33.789 33.682 4.29 67.257 9.439 100.831 14.266 38.401 5.471 76.803 10.834 115.205 16.198 13.73 1.93 27.568 3.862 41.406 5.685 28.64 3.969 40.547 21.668 36.578 49.664z"></path>
<path fill="#000" d="M266.377 286.060c-11.907-0.108-23.814-0.108-35.613 0.108-3.647 0.108-4.827-0.858-4.72-4.613 0.214-11.692 0.107-23.384 0.107-35.077 0-2.789 0-5.578-1.072-8.26-3.111-7.938-10.941-12.764-18.879-11.584-9.225 1.394-15.446 8.26-15.661 18.020-0.214 12.443-0.107 24.886 0 37.329 0 3.111-0.751 4.291-3.969 4.183-6.328-0.214-12.657-0.108-18.879-0.108-6.114 0-12.228 0-18.343 0-3.004 0-5.899 0.536-8.582 1.93-6.972 3.755-10.834 11.692-9.225 19.2 1.716 8.366 8.796 14.267 18.020 14.481 12.014 0.214 24.135 0.214 36.15 0 3.755-0.108 5.042 0.751 4.935 4.827-0.321 11.907-0.214 23.706-0.107 35.613 0.107 11.263 7.938 19.2 18.236 18.986 10.083-0.214 17.377-8.045 17.377-19.094 0.107-11.907 0.107-23.813 0-35.613-0.107-3.539 0.751-4.827 4.613-4.719 11.907 0.214 23.706 0.214 35.613 0.108 11.263-0.108 19.416-7.724 19.416-17.806 0-10.405-8.045-17.914-19.416-17.914z"></path>
</svg>
