<!-- Generated by IcoMoon.io -->
<svg version="1.1" xmlns="http://www.w3.org/2000/svg" width="1024" height="1024" viewBox="0 0 1024 1024">
<title></title>
<g id="icomoon-ignore">
</g>
<path d="M211.518 499.122c0-3.122 0.78-5.464 2.341-7.023s3.903-3.122 6.244-3.122c6.244 0 8.584 3.122 8.584 8.584 0 2.341-0.78 4.683-2.341 7.023-1.563 1.561-3.903 3.122-7.025 3.122-4.684 0-7.805-2.341-7.805-8.584z"></path>
<path d="M104.588 407.025c15.61 0 30.439 0.781 44.488 3.122 13.268 3.122 24.976 6.244 34.341 10.928s17.171 10.928 22.634 17.951c5.464 7.023 8.584 16.39 8.584 26.537 0 4.683-1.561 10.146-3.903 14.829s-6.242 8.584-10.926 12.488-10.146 7.805-16.39 10.928c-6.244 3.122-13.268 5.464-20.293 7.805s-14.829 3.902-22.634 5.464c-7.805 1.561-15.61 1.561-23.415 1.561-1.561 0-3.122-0.781-3.902-1.561-3.122 5.464-6.244 10.146-8.584 15.61-3.122 5.464-5.463 10.146-7.023 15.61-2.341 4.683-3.902 9.365-5.464 14.049s-2.341 8.584-2.341 11.707c0.781 0 2.341 0 3.122 0s1.561 0 2.341 0c0.781 0 0.781 0 1.561 0 1.561 0 1.561 0 1.561 0.781s0 1.561 0 2.341c-0.781 1.561-2.341 3.902-4.683 5.464s-4.683 2.341-7.023 2.341c-2.341 0-4.683-0.781-7.023-1.561s-4.683-2.341-6.244-4.683c-1.561-2.341-3.122-4.683-3.902-7.805s-1.561-6.244-1.561-10.146c0-4.683 0.781-10.146 2.341-16.39 1.561-5.464 3.902-11.707 7.023-17.951s6.244-12.488 10.146-18.732c3.902-6.244 7.805-11.707 11.707-17.951 3.902-5.464 7.805-10.928 12.488-15.61 3.902-4.683 7.805-9.365 10.928-12.488s6.244-6.244 8.584-8.584c2.341-2.341 3.902-3.122 4.683-3.122 1.561 0 2.341 0 3.902 0.781s3.122 1.561 4.683 2.341c1.561 0.781 3.122 1.561 4.683 2.341s2.341 1.561 2.341 1.561 1.561 1.561 1.561 3.122c0 0.781 0 2.341-1.561 3.902-3.122 3.122-7.023 7.805-10.928 13.268s-8.584 11.707-13.268 18.732c6.244 0 12.488-0.781 18.732-2.341 6.244-0.781 12.488-2.341 17.951-3.902s10.928-3.122 16.39-5.464c5.464-2.341 9.365-4.683 13.268-7.023s7.023-4.683 8.584-7.805c2.341-2.341 3.122-5.463 3.122-8.584 0-2.341-2.342-5.464-7.025-8.584s-10.928-6.244-19.512-8.584c-8.584-2.341-17.951-4.683-29.658-7.023-11.707-1.561-24.195-2.341-38.244-2.341-10.928 0-21.073 0.781-31.221 2.341s-18.732 3.902-27.316 6.244c-8.584 2.341-15.61 5.464-21.854 8.584s-11.707 6.244-15.61 10.146c-1.561 1.561-2.341 3.122-1.561 4.683s2.341 3.122 5.463 5.463c3.122 1.561 6.244 3.902 10.928 5.464 3.902 1.561 8.584 3.902 12.488 5.464s7.805 3.122 11.707 4.683c3.902 1.561 6.244 2.341 8.584 3.122 1.561 0.781 2.341 1.561 2.341 1.561 0 0.781 0 0.781-0.781 1.561-0.781 0-2.341 0.781-3.902 0.781s-3.122 0-5.463 0c-0.781 0-1.561 0-2.341 0s-1.561 0-2.341 0c-7.023 0-13.268-0.781-18.732-1.561-6.244-0.781-10.928-2.341-15.61-4.683-5.464-2.341-9.365-4.683-11.707-8.584s-3.902-8.584-3.902-13.268c0-6.244 1.561-12.488 3.902-17.951s6.244-10.146 10.928-14.829c4.683-4.683 10.146-7.805 17.171-11.707 6.244-3.122 13.268-5.464 21.073-7.805s16.39-3.902 24.976-4.683c8.584-1.561 17.171-2.341 26.537-2.341z"></path>
<path d="M225.563 524.878c1.561-1.561 2.341-3.122 3.121-3.122s0.78 0.781 0.78 3.122c0 1.561-0.78 4.683-2.341 7.023-0.78 1.561-2.341 4.683-3.121 7.023s-3.123 6.244-5.464 9.365c-1.561 3.122-3.901 6.244-6.244 9.365-2.341 3.122-4.682 6.244-7.025 8.584-2.341 2.341-4.682 4.683-7.805 6.244-2.341 1.561-4.683 2.341-7.805 2.341-1.561 0-3.122-0.781-4.683-1.561s-3.902-1.561-5.464-3.122c-1.561-1.561-3.122-3.122-4.683-4.683s-1.561-3.122-1.561-4.683 0.781-7.023 1.561-10.928c1.561-3.902 3.122-7.805 4.683-12.488 2.341-3.902 3.902-7.805 6.244-11.707s4.683-7.805 7.023-10.146c2.341-3.122 3.902-5.464 6.244-7.023 1.561-1.561 3.122-3.122 3.902-3.122s2.341 0 3.903 0.781c1.561 0.781 2.341 1.561 3.901 2.341s2.341 1.561 3.903 2.341c1.561 3.122 2.341 3.902 2.341 3.902 0.78 0.781 0.78 1.561 0.78 3.122 0 0.781-0.78 2.341-1.561 3.122-1.561 1.561-3.123 3.902-5.464 7.023s-4.682 6.244-6.244 10.146c-2.341 3.902-3.902 7.805-6.244 11.707-1.561 3.902-3.122 7.805-4.683 10.928 4.683-3.122 9.365-7.023 14.83-13.268 6.244-6.244 11.706-13.268 17.171-22.634z"></path>
<path d="M278.64 524.877c1.561-1.561 2.341-3.122 3.121-3.122s0.78 0.78 0.78 3.122c0 1.561-1.561 4.683-2.341 7.023-0.78 1.561-2.341 4.683-3.901 7.023-1.563 3.122-3.903 6.244-6.244 9.365-2.343 3.122-4.684 6.244-7.025 9.365s-5.464 6.244-7.805 8.584c-2.341 2.341-5.464 4.683-7.805 6.244s-5.464 2.341-7.805 2.341c-3.903 0-7.025-0.781-10.146-2.341-3.123-1.561-5.464-3.122-7.805-4.683-2.343-2.341-3.903-3.902-4.684-6.244-1.561-2.341-1.561-4.683-1.561-6.244 0-4.683 0.78-9.365 1.561-13.268 1.561-3.902 3.121-7.805 5.464-11.707 2.341-3.902 4.682-7.023 7.025-9.365 2.341-3.122 5.461-5.464 7.805-7.023 2.341-2.341 5.461-3.122 7.023-4.683 2.343-0.781 3.903-1.561 5.464-1.561s3.123 0 4.684 1.561c1.561 0.781 3.121 1.561 4.682 3.122 1.563 0.781 2.343 1.561 3.903 3.122 0.78 0.781 1.561 2.341 1.561 3.122 0 3.902-1.561 7.805-3.121 11.707-1.563 3.902-3.903 7.805-7.025 10.928s-5.464 6.244-9.365 8.584c-3.123 2.341-6.244 3.122-9.368 3.122-0.78 0-1.561 0-2.341 0-0.78 1.561-0.78 3.122-0.78 4.683s0 3.122 0 4.683c0 0.78 0.78 1.561 1.561 1.561s1.561 0.781 2.343 0.781c2.341 0 4.682-0.781 7.803-2.341 2.343-1.561 5.464-3.122 8.587-5.464 3.121-2.341 5.461-4.683 8.584-7.805 3.121-3.122 5.461-5.464 7.805-8.584 2.341-3.122 4.682-5.464 6.242-8.584 0.782-3.122 2.343-5.464 3.123-7.023zM246.639 526.438c-3.123 2.341-7.025 5.464-10.146 9.365-3.123 3.902-5.464 7.805-7.805 12.488 2.341-0.781 4.682-2.341 7.023-3.902 1.563-1.561 3.903-3.122 4.684-5.464 1.561-2.341 2.341-3.902 3.121-6.244 1.563-2.341 2.343-4.683 3.123-6.244z"></path>
<path d="M336.393 523.318c0 2.341 0 5.463-0.78 8.584s-2.341 7.023-3.903 10.928c-0.78 3.122-3.121 7.023-5.461 10.928-2.343 3.902-4.684 7.023-7.805 10.146-3.123 3.122-5.464 5.464-8.584 7.805-3.123 2.341-6.244 3.122-9.365 3.902-1.563 0-3.123 0-5.464-0.781-1.561-0.781-3.903-1.561-5.464-3.122-1.561-0.781-3.901-2.341-5.464-3.902-1.561-1.561-3.121-2.341-3.901-3.902-2.341 4.683-4.684 10.146-7.025 14.829s-3.901 9.365-5.464 14.049c-1.561 4.683-3.121 8.584-3.901 11.707-0.78 3.902-1.561 6.244-1.561 8.586 0 1.561 0 2.341-0.78 3.121 0 0.78-0.78 0.78-2.343 0.78-1.561 0-3.121-0.78-5.461-1.561-2.343-0.78-3.903-1.561-5.464-3.121-1.561-1.562-3.121-2.342-4.684-3.903-1.561-1.561-1.561-3.122-1.561-4.683 0-3.122 0.78-6.244 1.561-10.928 1.563-4.683 3.123-9.365 5.464-14.829s4.684-10.928 7.805-16.39c3.121-5.464 5.464-11.707 8.584-17.171s6.244-10.928 9.365-15.61c3.123-4.683 6.244-9.365 8.584-13.268 2.343-3.902 4.684-7.023 7.025-9.365 2.343-2.341 3.903-3.122 4.684-3.122s2.341 0 3.121 0.781c1.561 0.781 2.343 0.781 3.903 1.561s2.341 1.561 3.121 2.341c0.78 0.781 1.561 1.561 2.341 1.561l0.78 0.781c1.563-1.561 3.123-2.341 4.684-3.122s2.341-1.561 3.121-1.561h0.782c2.341 0 3.901 0.781 6.242 1.561 2.343 1.561 3.903 2.341 6.244 4.683 1.561 1.561 3.123 3.122 4.684 5.464 1.561 3.902 2.341 5.464 2.341 6.244zM290.345 560.001c2.343 0 3.903-1.561 6.244-3.122s4.684-3.902 6.244-6.244c2.341-2.341 3.901-5.464 6.244-7.805 1.561-3.122 3.901-6.244 4.682-8.584 1.561-3.122 3.123-5.464 3.903-8.584 0.78-2.341 1.561-4.683 2.341-6.244-3.121 0.781-6.244 3.122-10.146 5.463-3.903 3.122-7.025 6.244-10.148 10.146-3.121 3.902-6.242 7.805-9.365 11.707-3.121 3.902-4.682 7.023-6.244 10.146 0.782 0.781 2.343 1.561 3.123 2.341s1.561 0.781 3.121 0.781z"></path>
<path d="M428.486 575.611h-53.072v-116.293h-12.488l14.049-52.293h50.731l28.879 35.122 29.658-35.122h52.292v168.585h-52.292v-92.098l-28.879 37.463-28.879-37.463v92.098z"></path>
<path d="M671.216 407.025l47.609 168.585h-57.756l-5.464-21.073h-43.705l-5.464 21.073h-56.195l33.56-118.634h-12.488l13.269-49.951h86.635zM623.605 506.927h21.854l-10.148-46.049-11.706 46.049z"></path>
<path d="M782.044 575.611h-53.072v-116.293h-12.488l14.049-52.293h58.536c11.707 0 22.634 1.561 33.56 3.902 10.928 3.122 18.733 7.805 24.975 15.61 6.244 7.805 10.148 14.829 12.488 21.854s3.121 14.049 3.121 21.073c0 5.464-0.78 10.928-1.561 17.171s-3.901 12.488-7.805 18.732c-4.682 6.244-10.926 12.488-19.511 17.951l31.221 51.512h-61.659l-22.634-43.707v44.488h0.78zM782.044 486.635h15.61c3.903 0 7.025-0.781 9.365-2.341 2.343-1.561 3.123-3.122 3.903-4.683s0.78-3.902 0.78-6.244c0-3.122-0.78-6.244-2.341-8.584-1.563-2.341-3.903-3.902-7.805-4.683-3.123-0.781-10.148-0.781-19.513-0.781v27.316z"></path>
<path d="M934.244 517.074v58.537h-53.074v-116.293h-12.488l14.049-52.293h50.732v56.976l28.877-56.976h57.756l-42.926 82.732 46.83 85.853h-57.756l-32-58.537z"></path>
</svg>
