<!-- Generated by IcoMoon.io -->
<svg version="1.1" xmlns="http://www.w3.org/2000/svg" width="512" height="512" viewBox="0 0 512 512">
<title></title>
<g id="icomoon-ignore">
</g>
<path d="M472.474 323.277c-12.923-12.356-21.902-28.739-24.92-47.129l-0.066-0.487c-2.151-13.312-1.843-27.238-1.639-40.653 0.103-5.427 0.205-10.957 0.205-16.487-0.103-17.511-1.433-30.925-4.199-43.417-8.806-39.321-28.467-74.035-56.832-100.454-28.365-26.522-64.409-43.623-104.141-49.664-0.409-0.102-0.717-0.102-0.921-0.205 0-0.102-0.103-0.307-0.103-0.512-1.913-11.395-11.704-19.968-23.497-19.968-0.055 0-0.111 0-0.166 0h-0.298c-0.004 0-0.007 0-0.011 0-11.732 0-21.457 8.597-23.216 19.835l-0.017 0.133c0 0.307-0.102 0.512-0.102 0.614-38.131 5.075-71.86 20.919-98.844 44.331l0.232-0.197c-40.448 34.816-62.976 78.951-66.969 131.174-1.229 16.487-0.921 32.768-0.409 50.893 0.819 30.105-8.909 54.886-29.799 75.674-18.535 18.534-22.733 42.496-11.879 67.481 10.547 24.269 30.311 37.274 57.242 37.581 25.498 0.307 50.79 0.205 75.469-0.103 1.024 0 1.536 0.103 1.741 0.103 0.231 0.516 0.441 1.13 0.599 1.766l0.016 0.077c11.673 42.189 51.097 73.421 93.798 74.137h1.638c21.607 0 42.905-7.168 60.314-20.173 17.57-13.232 30.536-31.742 36.591-53.154l0.171-0.709c0.307-1.229 0.615-1.639 0.717-1.843 0.205-0.103 0.819-0.205 2.151-0.103 9.318 0.205 18.739 0.205 27.75 0.103h15.974v-0.409c2.867 0.103 5.735 0.103 8.499 0.205 10.24 0.307 20.889 0.615 31.334-0.615 25.19-2.969 43.315-18.329 50.995-43.315 7.475-23.859 1.433-46.183-17.408-64.512zM255.898 459.571c-18.535-0.103-36.045-11.059-44.953-27.341h90.317c-8.937 16.202-25.8 27.060-45.222 27.341l-0.039 0h-0.102zM114.585 252.518v-8.397c0.103-4.506 0-9.011 0-13.415-0.103-15.872-0.103-30.822 2.867-45.773 6.614-30.444 22.199-56.528 43.807-76.076l0.123-0.109c22.528-20.48 50.893-33.382 79.872-36.352 4.31-0.468 9.31-0.734 14.373-0.734 33.654 0 64.555 11.786 88.802 31.456l-0.262-0.206c28.406 22.665 47.733 55.669 52.26 93.228l0.066 0.673c1.945 16.077 1.536 32.666 1.229 48.845-0.103 3.072-0.103 6.042-0.205 9.113-0.615 36.659 11.059 69.12 34.611 96.358l0.717 0.819c2.151 2.56 4.403 5.12 6.963 7.475 4.813 4.301 5.939 9.216 3.379 15.872-1.433 3.687-4.403 8.499-14.438 8.499h-346.214c-0.216 0.011-0.469 0.017-0.722 0.017-4.21 0-8.016-1.731-10.743-4.521l-0.002-0.002c-2.285-2.675-3.675-6.174-3.675-9.998 0-0.591 0.033-1.173 0.097-1.746l-0.007 0.070c0.205-2.867 1.536-5.223 4.301-7.987 23.552-23.347 37.478-51.405 41.575-83.456 1.331-8.089 1.229-15.974 1.229-23.654z"></path>
</svg>
