<!-- Generated by IcoMoon.io -->
<svg version="1.1" xmlns="http://www.w3.org/2000/svg" width="512" height="512" viewBox="0 0 512 512">
<title></title>
<g id="icomoon-ignore">
</g>
<path fill="#000" d="M0.001 246.906c1.492-0.32 1.492-1.757 1.705-2.77 5.434-20.671 23.869-34.256 47.632-34.15 49.177 0.214 98.353 0.053 147.53 0.053 10.922 0 13.373-2.451 13.373-13.584 0-49.173 0-98.345 0-147.517 0-12.945 3.463-24.506 12.308-34.362 11.828-13.159 31.168-18.38 49.39-11.614 16.995 6.287 26.799 18.965 29.303 37.132 0.747 5.328 0.693 10.655 0.693 15.983 0 46.989 0 94.029 0 141.017 0 10.335 2.61 12.999 12.947 12.999 49.337 0 98.727 0 148.063 0 12.521 0 23.923 3.143 33.619 11.561 13.373 11.561 18.808 30.739 13.32 48.159-5.381 17.102-20.779 29.568-38.308 31.326-4.849 0.479-9.644 0.639-14.491 0.639-47.366 0-94.678 0-142.042 0-10.603 0-13.159 2.557-13.159 13.265 0 49.332 0 98.717 0 148.049 0 11.987-2.877 23.014-10.815 32.391-6.926 8.204-15.611 13.265-26.053 15.502-0.747 0.161-1.705-0.159-1.918 1.012-5.329 0-10.657 0-15.984 0-1.278-2.131-3.676-1.918-5.594-2.61-7.619-2.558-13.959-6.873-19.34-12.733-8.791-9.697-11.881-21.31-11.881-33.99 0-49.173 0-98.291 0-147.464 0-10.974-2.451-13.478-13.479-13.478-49.178 0-98.3-0.159-147.477 0.053-23.709 0.106-42.144-13.425-47.632-34.149-0.266-1.012-0.266-2.397-1.705-2.77 0-5.967 0-11.987 0-17.954z"></path>
</svg>
