<!-- Generated by IcoMoon.io -->
<svg version="1.1" xmlns="http://www.w3.org/2000/svg" width="512" height="512" viewBox="0 0 512 512">
<title></title>
<g id="icomoon-ignore">
</g>
<path d="M472.58 250.967c-10.584-58.052-40.198-104.557-87.558-139.516-36.456-26.942-77.723-40.733-123.053-42.443v-56.769c-0.001-6.76-5.481-12.239-12.242-12.239-2.264 0-4.385 0.615-6.204 1.687l0.058-0.032-148.603 85.741c-3.668 2.159-6.091 6.089-6.091 10.584s2.422 8.424 6.034 10.552l0.058 0.031 148.603 85.741c1.756 1.029 3.868 1.636 6.12 1.636 6.759 0 12.24-5.465 12.268-12.218v-53.564c9.942 0.749 19.778 1.71 29.507 4.063 36.776 9.088 67.032 28.438 90.231 58.373 21.168 27.262 32.072 58.373 33.356 92.691 0.075 1.798 0.118 3.909 0.118 6.029 0 23.046-5.086 44.905-14.197 64.514l0.394-0.946c-17.212 37.846-44.688 65.749-82.748 82.32-41.267 18.281-83.282 18.709-124.87 1.603-39.343-16.144-67.673-44.153-85.527-82.748-6.308-13.577-9.515-27.904-12.829-42.443-2.993-13.149-14.112-21.916-28.117-22.986-12.081-0.962-24.269 6.949-29.4 18.602-3.849 8.767-2.031 17.426-0.214 26.192 9.291 44.385 31.012 82.68 61.319 112.209l0.047 0.046c34.852 34.425 76.547 55.379 125.084 62.114 42.122 5.88 82.748 0 121.555-17.533 42.266-19.017 76.414-49.791 99.088-88.153l0.552-1.009c27.796-47.147 37.097-98.142 27.262-152.131z"></path>
</svg>
