<!-- Generated by IcoMoon.io -->
<svg version="1.1" xmlns="http://www.w3.org/2000/svg" width="512" height="512" viewBox="0 0 512 512">
<title></title>
<g id="icomoon-ignore">
</g>
<path fill="#000" d="M149.367 511.894c-8.843-4.098-12.078-10.999-11.323-20.596 0.755-9.49-0.863-19.087 0.863-28.576 3.343-18.548 13.803-31.488 31.056-38.928 2.804-1.186 4.206-2.264 4.206-5.716-0.108-50.036-0.108-99.963-0.108-149.999 0-2.373-0.539-3.99-2.588-5.5-36.017-25.125-57.691-59.202-64.486-102.551-0.216-1.186-0.539-2.264-0.862-3.99-15.636 6.038-25.449 16.822-29.439 32.889-0.862 3.451-1.079 7.010-1.079 10.675 0 37.743 0.108 75.377-0.108 113.119 0 3.235 0.971 4.529 3.882 5.93 17.361 8.519 26.311 22.538 26.959 41.84 0.108 3.451 0.108 6.793 0 10.245-0.323 8.627-7.010 15.313-15.421 15.205-8.411 0-15.097-6.685-15.313-15.313-0.108-3.558 0.108-7.117-0.108-10.784-0.431-8.303-7.117-14.882-15.313-14.882s-14.882 6.363-15.421 14.774c-0.216 3.774 0 7.548-0.108 11.215-0.324 7.98-6.471 14.235-14.127 14.882-7.441 0.647-15.097-4.421-16.067-12.078-1.941-16.175-0.323-31.704 11.538-44.428 4.313-4.637 9.274-8.627 15.313-10.892 3.020-1.186 3.451-2.911 3.451-5.716-0.108-36.88-0.108-73.651 0-110.531 0-38.605 21.028-66.642 58.232-77.102 2.912-0.862 3.019-2.373 3.343-4.637 8.088-55.535 37.526-95.326 88.209-119.481 0.755-0.324 1.51-0.647 2.264-0.971 1.078 1.833 0.647 3.558 0.647 5.068 0 26.311 0 52.516 0.108 78.828 0 3.019-0.755 5.391-2.588 7.872-18.87 26.204-21.89 54.241-6.578 82.602s40.438 42.271 72.681 40.33c29.762-1.833 51.977-17.254 64.486-44.32 12.617-27.174 9.274-53.379-7.98-77.749-2.156-3.127-3.235-5.93-3.235-9.706 0.108-27.498 0.108-54.888 0.108-82.278 1.618-1.079 2.803 0.216 3.882 0.755 50.252 24.479 79.582 64.27 87.346 119.589 0.324 2.696 1.294 3.558 3.882 4.313 35.262 9.382 57.692 38.605 57.8 74.945 0 37.311 0 74.729 0 112.041 0 3.127 0.539 4.853 3.882 6.471 17.038 8.195 25.988 21.998 26.851 40.87 0.216 3.774 0.108 7.548 0 11.215-0.324 8.627-7.117 15.205-15.421 15.205-8.411-0.108-14.989-6.685-15.205-15.421-0.108-3.451 0.108-6.793-0.108-10.245-0.324-8.735-6.901-15.205-15.313-15.313-8.303 0-15.097 6.685-15.313 15.313-0.108 3.451 0.108 6.793 0 10.245-0.324 8.735-6.901 15.313-15.313 15.421-8.411 0-15.205-6.578-15.421-15.205-0.216-9.705-0.431-19.411 3.774-28.576 4.961-10.892 12.724-18.871 23.616-23.724 2.588-1.079 3.451-2.373 3.451-5.176-0.108-38.389 0-76.779-0.108-115.168-0.108-19.195-13.695-37.526-30.733-41.624-1.834 12.293-4.637 24.37-9.166 36.017-11.215 28.576-29.439 51.653-54.565 69.23-2.803 1.942-3.99 3.882-3.99 7.333 0.108 49.497 0.108 98.993 0 148.381 0 3.343 0.863 4.853 4.098 6.255 20.165 8.842 30.841 24.587 31.811 46.584 0.324 7.44-0.216 14.989 0.108 22.538 0.539 9.49-3.343 15.852-12.401 19.087-26.312 0-52.623 0-78.935 0-8.842-4.098-12.078-10.999-11.43-20.596 0.539-6.793-0.108-13.695 0.108-20.489 0.755-22.214 11.43-38.065 31.811-47.016 3.127-1.402 4.206-2.803 4.206-6.255-0.108-42.595-0.108-85.298-0.108-127.892 0-3.019 0-6.147 0-9.706-34.291 11.754-68.26 11.862-102.335 0-0.108 1.186-0.216 1.834-0.216 2.481 0 45.399 0 90.69-0.108 136.088 0 3.019 1.186 3.99 3.666 4.961 17.47 7.44 28.145 20.489 31.488 39.144 1.726 9.921 0.216 20.057 0.863 30.087 0.539 9.49-3.343 15.852-12.401 19.087-26.528 0-52.839 0-79.15 0z"></path>
</svg>
