<!-- Generated by IcoMoon.io -->
<svg version="1.1" xmlns="http://www.w3.org/2000/svg" width="512" height="512" viewBox="0 0 512 512">
<title></title>
<g id="icomoon-ignore">
</g>
<path d="M61.825 293.318c0-52.736 0-105.437 0.136-158.138 0-4.369-0.682-6.076-5.598-5.939-11.468 0.444-22.938 0.171-34.406 0.171-13.688-0.307-21.811-8.226-21.948-21.299-0.137-13.243 7.851-21.572 21.401-21.572 27.409-0.273 54.817-0.136 82.26-0.136 19.285 0 38.434-0.136 57.753 0.136 3.755 0 4.881-0.99 4.881-4.915-0.273-12.117-0.137-24.234-0.137-36.523 0.137-25.497 17.613-44.236 42.803-44.68 13.983-0.27 30.475-0.423 47.001-0.423 16.525 0 33.014 0.153 49.467 0.459l-2.466-0.036c25.156 0.444 42.495 19.183 42.803 44.715 0.137 11.947 0.273 23.927-0.171 35.772-0.137 4.505 1.127 5.495 5.462 5.495 45.192-0.136 90.214-0.136 135.406-0.136 3.891 0 7.851-0.136 11.605 0.99 9.899 3.072 15.087 12.288 13.688 24.234-1.263 10.001-8.534 17.203-18.739 17.476-4.527 0.202-9.836 0.317-15.172 0.317s-10.645-0.115-15.925-0.343l0.753 0.025c-4.779-0.137-6.144 0.99-6.144 5.939 0.273 44.237 0.137 88.643 0.137 132.88v177.595c0 32.563-20.548 58.64-51.336 65.126-4.353 0.87-9.358 1.368-14.479 1.368-0.226 0-0.451-0.001-0.676-0.002h0.034c-87.244 0.17-174.659 0.17-261.937 0-33.451 0-59.46-21.401-65.331-53.657-0.853-4.95-0.853-10.171-0.99-15.224-0.136-49.766-0.136-99.805-0.136-149.673zM221.977 299.803c0-13.995 0.273-27.784 0-41.745-0.273-12.97-8.397-20.821-20.821-21.129-12.629-0.273-21.709 7.475-21.845 20.002-0.167 12.575-0.262 27.421-0.262 42.291s0.095 29.716 0.285 44.541l-0.023-2.25c-0.005 0.147-0.006 0.322-0.006 0.496 0 9.507 6.903 17.401 15.97 18.944l0.113 0.016c15.394 2.935 26.453-5.939 26.59-21.845 0.137-13.107 0-26.214 0-39.322zM339.053 299.087c0-14.097 0.273-28.194 0-42.291 0.005-0.163 0.008-0.356 0.008-0.549 0-8.481-5.532-15.668-13.185-18.153l-0.135-0.038c-15.224-5.222-28.808 4.096-28.945 20.309-0.137 27.204 0 54.374 0 81.714-0 0.050-0 0.111-0 0.171 0 2.41 0.362 4.736 1.034 6.925l-0.045-0.167c2.799 9.865 11.878 15.497 22.528 14.37 11.025-1.263 18.432-8.192 18.739-18.875 0.273-14.37 0-28.911 0-43.417zM255.53 86.438c14.131 0 28.398-0.171 42.53 0.103 3.925 0 4.915-1.126 4.915-4.915-0.134-5.082-0.21-11.066-0.21-17.067s0.077-11.984 0.228-17.949l-0.017 0.883c0-3.379-1.024-4.199-4.199-4.199-28.535 0.136-57.207 0.136-85.742 0-2.935 0-4.062 0.682-3.925 3.789 0.137 11.571 0.273 23.108 0 34.679 0 3.516 0.853 4.642 4.471 4.642 13.994-0.136 27.989 0 41.983 0z"></path>
</svg>
