<!-- Generated by IcoMoon.io -->
<svg version="1.1" xmlns="http://www.w3.org/2000/svg" width="512" height="512" viewBox="0 0 512 512">
<title></title>
<g id="icomoon-ignore">
</g>
<path d="M255.952 220.429c60.686-0.137 109.85-49.268 110.043-109.928v-0.019c0.219-60.582-49.048-110.043-109.509-110.481-0.221-0.002-0.481-0.003-0.743-0.003-30.148 0-57.433 12.253-77.149 32.050l-0.004 0.004c-20.090 19.749-32.551 47.206-32.585 77.573v0.007c-0.001 0.162-0.001 0.354-0.001 0.546 0 30.465 12.372 58.041 32.366 77.977l0.002 0.002c19.777 19.931 47.181 32.27 77.468 32.27 0.039 0 0.078 0 0.117 0h-0.006zM215.45 69.034c10.299-10.364 24.562-16.779 40.323-16.779 0.020 0 0.040 0 0.060 0h0.337c31.836 0.302 57.531 26.16 57.571 58.029v0.004c-0.055 31.88-25.829 57.722-57.677 57.886h-0.234c-15.273 0-29.696-6.070-40.696-16.997-10.561-10.43-17.102-24.91-17.102-40.917 0-16.163 6.669-30.768 17.405-41.214l0.013-0.013zM383.502 511.975h-255.003c-49.528-0.069-89.661-40.193-89.744-89.712v-37.061c0.124-79.607 64.624-144.107 144.22-144.232h146.040c79.607 0.124 144.107 64.624 144.231 144.22v37.065c-0.069 49.537-40.207 89.675-89.737 89.744h-0.007zM182.986 292.229c-51.323 0.027-92.921 41.625-92.949 92.947v37.056c0 21.27 17.191 38.462 38.461 38.462h255.003c21.27 0 38.462-17.191 38.462-38.462v-37.053c-0.027-51.324-41.625-92.921-92.947-92.949h-146.030z"></path>
</svg>
